# xmcd
#
# Track frame offsets:
#	150
#	13680
#	26737
#	43655
#	58805
#	74732
#	89710
#	102042
#
# Disc length: 1559 seconds
#
# Revision: 2
# Processed by: cddbd v1.5.2PL0 Copyright (c) Steve Scherf et al.
# Submitted via: EasyCDDAExtractor 12.0.1.1
#
DISCID=70061508
DTITLE=John Anderson - Swingin'
DYEAR=1995
DGENRE=Country
TTITLE0=Swingin'
TTITLE1=I've Got It Made
TTITLE2=Keep Your Hands To Yourself
TTITLE3=Can't Get Away From You
TTITLE4=Steamy Windows
TTITLE5=Solid Ground
TTITLE6=Where I Come From
TTITLE7=Who Got Our Love
EXTD=
EXTT0=
EXTT1=
EXTT2=
EXTT3=
EXTT4=
EXTT5=
EXTT6=
EXTT7=
PLAYORDER=
